<mxfile host="app.diagrams.net" agent="Mozilla/5.0 (Windows NT 10.0; Win64; x64) AppleWebKit/537.36 (KHTML, like Gecko) Chrome/140.0.0.0 Safari/537.36 Edg/140.0.0.0" version="28.2.0">
  <diagram name="ページ1" id="OlCu8ZwCwTAybwWV5OHE">
    <mxGraphModel dx="778" dy="460" grid="1" gridSize="10" guides="1" tooltips="1" connect="1" arrows="1" fold="1" page="1" pageScale="1" pageWidth="827" pageHeight="1169" math="0" shadow="0">
      <root>
        <mxCell id="0" />
        <mxCell id="1" parent="0" />
        <mxCell id="DqBCy_bKoFf5sjKgvJap-1" value="+field: type" style="rounded=0;whiteSpace=wrap;html=1;" vertex="1" parent="1">
          <mxGeometry x="400" y="50" width="120" height="60" as="geometry" />
        </mxCell>
        <mxCell id="DqBCy_bKoFf5sjKgvJap-2" value="+ method(type): type" style="rounded=0;whiteSpace=wrap;html=1;" vertex="1" parent="1">
          <mxGeometry x="400" y="110" width="120" height="60" as="geometry" />
        </mxCell>
        <mxCell id="DqBCy_bKoFf5sjKgvJap-3" value="Class" style="rounded=0;whiteSpace=wrap;html=1;" vertex="1" parent="1">
          <mxGeometry x="400" y="10" width="120" height="40" as="geometry" />
        </mxCell>
        <mxCell id="DqBCy_bKoFf5sjKgvJap-4" value="&amp;nbsp;-メーカー&lt;div&gt;&lt;span style=&quot;background-color: transparent; color: light-dark(rgb(0, 0, 0), rgb(255, 255, 255));&quot;&gt;&amp;nbsp;- 色&lt;/span&gt;&lt;div&gt;&amp;nbsp;-走行距離&lt;/div&gt;&lt;/div&gt;" style="rounded=0;whiteSpace=wrap;html=1;align=left;" vertex="1" parent="1">
          <mxGeometry x="150" y="230" width="120" height="60" as="geometry" />
        </mxCell>
        <mxCell id="DqBCy_bKoFf5sjKgvJap-5" value="&amp;nbsp;+ 走る&lt;div&gt;&amp;nbsp;+ 曲がる&lt;/div&gt;&lt;div&gt;&amp;nbsp;+ 止まる&lt;/div&gt;&lt;div&gt;&lt;br&gt;&lt;/div&gt;" style="rounded=0;whiteSpace=wrap;html=1;align=left;" vertex="1" parent="1">
          <mxGeometry x="150" y="290" width="120" height="70" as="geometry" />
        </mxCell>
        <mxCell id="DqBCy_bKoFf5sjKgvJap-6" value="車" style="rounded=0;whiteSpace=wrap;html=1;" vertex="1" parent="1">
          <mxGeometry x="150" y="170" width="120" height="60" as="geometry" />
        </mxCell>
      </root>
    </mxGraphModel>
  </diagram>
</mxfile>
